<?xml version="1.0" standalone="no"?>
<!DOCTYPE svg PUBLIC "-//W3C//DTD SVG 20010904//EN"
 "http://www.w3.org/TR/2001/REC-SVG-20010904/DTD/svg10.dtd">
<svg version="1.0" xmlns="http://www.w3.org/2000/svg"
 width="529.000000pt" height="537.000000pt" viewBox="0 0 529.000000 537.000000"
 preserveAspectRatio="xMidYMid meet">

<g transform="translate(0.000000,537.000000) scale(0.100000,-0.100000)"
fill="#000000" stroke="none">
<path d="M2305 5343 c-27 -2 -52 -8 -55 -12 -3 -5 -61 -20 -130 -35 -464 -99
-912 -352 -1270 -717 -72 -74 -93 -98 -175 -199 -20 -25 -42 -53 -50 -62 -7
-9 -22 -29 -32 -45 -10 -15 -21 -32 -26 -38 -17 -22 -55 -85 -102 -165 -231
-402 -345 -832 -345 -1306 0 -382 62 -693 205 -1034 65 -156 212 -415 289
-511 12 -14 32 -41 46 -59 115 -154 342 -387 490 -502 303 -234 674 -403 1030
-467 602 -109 1212 13 1715 343 488 321 848 791 1035 1356 101 305 134 519
134 865 0 339 -33 550 -134 855 -188 565 -550 1039 -1040 1359 -124 81 -343
190 -483 241 -113 41 -324 94 -458 115 -103 17 -529 28 -644 18z m218 -129 c9
-3 19 -15 23 -26 12 -38 -59 -79 -177 -103 -43 -8 -117 -29 -165 -45 -49 -16
-95 -30 -102 -30 -35 0 -323 -132 -399 -182 -23 -15 -46 -28 -52 -28 -5 0 -30
-16 -55 -35 -26 -19 -49 -35 -52 -35 -3 0 -28 -17 -56 -37 -509 -385 -833
-930 -934 -1575 -26 -160 -26 -538 -1 -695 31 -193 99 -439 157 -569 82 -182
214 -412 281 -489 10 -11 40 -47 67 -81 143 -175 429 -419 560 -479 18 -8 45
-23 60 -33 69 -47 335 -154 467 -187 190 -48 233 -54 425 -61 245 -8 432 6
565 41 55 15 118 30 140 34 22 4 74 22 115 39 41 18 80 32 87 32 44 0 434 218
472 263 7 10 19 17 26 17 6 0 20 10 31 21 10 12 35 32 54 44 38 25 220 203
287 281 23 27 51 60 63 73 11 13 20 27 20 30 0 3 14 22 30 41 16 19 30 38 30
42 0 4 6 13 14 20 7 8 39 56 70 108 426 708 469 1566 114 2293 -47 96 -57 124
-39 113 10 -6 97 -182 136 -276 88 -209 149 -457 175 -714 18 -169 8 -495 -19
-655 -64 -374 -199 -714 -395 -999 -28 -41 -58 -83 -66 -95 -23 -35 -179 -215
-234 -271 -74 -75 -212 -196 -224 -196 -5 0 -16 -7 -23 -16 -12 -15 -121 -92
-167 -119 -10 -5 -35 -21 -57 -36 -50 -32 -297 -152 -350 -169 -22 -8 -81 -28
-132 -47 -51 -18 -102 -33 -115 -33 -13 0 -48 -7 -78 -15 -158 -43 -269 -55
-510 -55 -243 0 -305 6 -505 51 -129 28 -308 85 -393 125 -40 19 -77 34 -83
34 -6 0 -37 16 -69 35 -32 19 -63 35 -69 35 -6 0 -33 16 -60 35 -26 19 -51 35
-55 35 -6 0 -120 77 -169 114 -74 56 -220 186 -287 255 -73 75 -100 106 -175
201 -19 25 -39 50 -43 55 -5 6 -17 24 -28 40 -10 17 -21 32 -25 35 -15 12
-125 205 -175 309 -171 353 -248 695 -247 1106 0 401 86 771 263 1130 205 418
482 737 855 985 33 22 63 40 67 40 4 0 32 16 62 35 30 19 60 35 65 35 6 0 43
15 83 34 179 85 470 163 653 176 112 8 239 5 268 -6z m753 -986 c-3 -13 -12
-63 -21 -113 -9 -49 -18 -98 -21 -107 -5 -16 -24 -18 -224 -18 l-219 0 -10
-52 c-6 -29 -54 -291 -106 -583 l-96 -530 -67 -67 -66 -68 -104 0 c-95 0 -104
1 -97 18 7 16 38 170 70 347 62 348 166 912 170 923 3 9 -20 12 -97 12 -114 0
-157 14 -235 78 -43 34 -43 34 -43 103 l0 68 43 4 c23 2 286 4 585 5 l542 2
-4 -22z m-1308 -543 c-3 -42 -8 -78 -11 -81 -3 -3 -70 -10 -148 -15 -79 -5
-144 -11 -145 -12 -4 -4 -52 -252 -97 -501 l-43 -239 -55 -43 c-49 -40 -59
-44 -111 -44 -48 0 -56 2 -52 18 2 9 33 184 69 387 36 204 68 380 70 392 6 24
-4 28 -130 54 -81 17 -115 48 -115 106 l0 43 188 3 c103 1 276 3 386 5 l199 2
-5 -75z m1754 -200 c3 -3 0 -31 -6 -63 l-12 -57 -107 -3 c-59 -1 -107 -5 -107
-8 0 -3 -7 -37 -15 -77 -8 -40 -28 -150 -45 -245 -17 -96 -37 -187 -45 -202
-23 -44 -76 -80 -118 -80 -21 0 -37 2 -37 4 0 10 91 499 100 538 5 24 10 46
10 50 0 4 -17 10 -37 13 -21 4 -55 13 -75 22 -36 15 -38 19 -38 59 l0 43 53 4
c86 6 473 7 479 2z m-1142 -1290 c0 -11 -11 -15 -40 -15 l-40 0 0 -115 c0
-108 -1 -115 -20 -115 -19 0 -20 7 -20 115 l0 115 -40 0 c-29 0 -40 4 -40 15
0 12 18 15 100 15 82 0 100 -3 100 -15z m199 1 c76 -40 66 -206 -15 -236 -92
-35 -164 18 -164 122 0 101 91 159 179 114z m224 3 c30 -16 37 -28 37 -71 0
-45 -36 -78 -86 -78 l-34 0 0 -50 c0 -43 -3 -50 -20 -50 -19 0 -20 7 -20 123
0 68 3 127 7 130 11 11 93 8 116 -4z m-1233 -504 c0 -11 -11 -15 -40 -15 l-40
0 0 -115 c0 -108 -1 -115 -20 -115 -19 0 -20 7 -20 115 l0 115 -40 0 c-29 0
-40 4 -40 15 0 12 18 15 100 15 82 0 100 -3 100 -15z m180 0 c0 -12 -13 -15
-55 -15 l-55 0 0 -40 0 -40 45 0 c33 0 45 -4 45 -15 0 -11 -12 -15 -45 -15
l-45 0 0 -45 0 -45 55 0 c43 0 55 -3 55 -15 0 -13 -13 -15 -72 -13 l-73 3 -3
114 c-1 63 0 121 2 128 8 20 146 18 146 -2z m208 -1 c20 -14 33 -51 15 -42 -5
2 -20 10 -35 17 -58 29 -108 -16 -108 -99 0 -74 58 -108 133 -75 12 5 17 3 17
-9 0 -20 -39 -36 -85 -36 -24 0 -45 9 -67 29 -27 24 -32 36 -35 87 -6 92 33
142 112 143 17 1 41 -6 53 -15z m102 -39 l0 -55 60 0 60 0 0 55 c0 48 2 55 20
55 19 0 20 -7 20 -130 0 -123 -1 -130 -20 -130 -18 0 -20 7 -20 60 l0 60 -60
0 -60 0 0 -60 c0 -52 -3 -60 -18 -60 -17 0 -19 11 -20 130 -2 124 -1 130 18
130 18 0 20 -7 20 -55z m327 -45 l53 -95 0 98 c0 90 1 97 20 97 19 0 20 -7 20
-130 0 -130 0 -130 -23 -130 -20 0 -33 17 -78 100 l-54 100 -3 -100 c-2 -92
-4 -100 -22 -100 -19 0 -20 7 -20 123 0 68 3 127 7 131 4 4 16 6 28 4 14 -2
36 -32 72 -98z m322 85 c38 -19 54 -63 49 -131 -6 -69 -35 -103 -98 -111 -83
-11 -130 37 -130 131 0 99 92 156 179 111z m141 -100 l0 -115 50 0 c38 0 50
-4 50 -15 0 -13 -12 -15 -67 -13 l-68 3 -3 128 c-2 122 -2 127 18 127 19 0 20
-6 20 -115z m299 101 c76 -40 66 -206 -15 -236 -94 -36 -164 16 -164 124 0 98
92 156 179 112z m275 4 c14 -5 26 -17 26 -26 0 -11 -5 -14 -17 -9 -10 4 -36 9
-58 12 -34 4 -44 1 -68 -22 -22 -23 -27 -37 -27 -77 0 -64 35 -101 89 -96 34
3 36 5 39 41 3 35 2 37 -27 37 -21 0 -31 5 -31 15 0 11 12 15 50 15 l50 0 0
-60 c0 -56 -2 -61 -26 -70 -65 -25 -142 -2 -169 50 -20 39 -19 105 2 141 30
50 105 73 167 49z m127 -45 c12 -30 25 -55 29 -55 3 0 18 25 33 55 15 30 34
55 42 55 22 0 19 -12 -20 -90 -26 -52 -35 -82 -35 -120 0 -43 -3 -50 -20 -50
-17 0 -20 7 -20 50 0 38 -9 68 -35 120 -40 80 -42 90 -16 90 14 0 26 -16 42
-55z m-573 -398 c2 -12 -3 -17 -17 -17 -15 0 -21 6 -21 21 0 25 33 22 38 -4z
m-868 -62 c0 -11 -11 -15 -40 -15 l-40 0 0 -115 c0 -108 -1 -115 -20 -115 -19
0 -20 7 -20 115 l0 115 -40 0 c-29 0 -40 4 -40 15 0 12 18 15 100 15 82 0 100
-3 100 -15z m199 0 c38 -19 54 -63 49 -131 -6 -69 -35 -103 -96 -111 -85 -11
-132 35 -132 129 0 101 92 159 179 113z m224 4 c30 -16 37 -28 37 -71 0 -45
-36 -78 -86 -78 l-34 0 0 -50 c0 -43 -3 -50 -20 -50 -19 0 -20 7 -20 123 0 68
3 127 7 130 11 11 93 8 116 -4z m256 -4 c38 -19 54 -63 49 -131 -6 -69 -35
-103 -96 -111 -85 -11 -132 35 -132 129 0 101 92 159 179 113z m251 -1 c0 -8
-27 -57 -60 -108 -33 -51 -60 -96 -60 -99 0 -3 28 -7 63 -9 93 -4 76 -23 -25
-26 -73 -2 -88 0 -88 12 0 9 29 61 65 116 l65 100 -65 0 c-51 0 -65 3 -65 15
0 12 16 15 85 15 71 0 85 -3 85 -16z"/>
<path d="M2665 2155 c-33 -32 -35 -110 -4 -149 27 -34 77 -36 107 -3 32 34 31
125 -1 155 -31 29 -72 28 -102 -3z"/>
<path d="M2920 2130 c0 -49 1 -50 30 -50 20 0 35 8 46 25 15 23 15 27 0 50
-11 17 -26 25 -46 25 -29 0 -30 -1 -30 -50z"/>
<path d="M2795 1655 c-20 -19 -25 -34 -25 -73 0 -90 62 -130 124 -81 23 18 26
28 26 78 0 47 -4 61 -23 79 -31 29 -72 28 -102 -3z"/>
<path d="M3235 1655 c-20 -19 -25 -34 -25 -73 0 -90 62 -130 124 -81 23 18 26
28 26 78 0 47 -4 61 -23 79 -31 29 -72 28 -102 -3z"/>
<path d="M2395 1155 c-33 -32 -35 -110 -4 -149 27 -34 77 -36 107 -3 30 32 31
123 2 155 -28 30 -74 29 -105 -3z"/>
<path d="M2650 1130 c0 -49 1 -50 30 -50 20 0 35 8 46 25 15 23 15 27 0 50
-11 17 -26 25 -46 25 -29 0 -30 -1 -30 -50z"/>
<path d="M2875 1155 c-38 -37 -32 -140 9 -167 23 -16 73 -8 94 15 32 34 31
125 -1 155 -31 29 -72 28 -102 -3z"/>
</g>
</svg>
